<?xml version="1.0" encoding="UTF-8" standalone="no"?>
<!DOCTYPE svg PUBLIC "-//W3C//DTD SVG 1.1//EN" "http://www.w3.org/Graphics/SVG/1.1/DTD/svg11.dtd">
<svg width="100%" height="100%" viewBox="0 0 1920 1080" version="1.1" xmlns="http://www.w3.org/2000/svg" xmlns:xlink="http://www.w3.org/1999/xlink" xml:space="preserve" xmlns:serif="http://www.serif.com/" style="fill-rule:evenodd;clip-rule:evenodd;stroke-linejoin:round;stroke-miterlimit:2;">
    <g transform="matrix(2.12194e-16,1.09533,-3.21739,1.97539e-16,1920,-198.256)">
        <rect x="181" y="0" width="986" height="598" style="fill:url(#_Linear1);"/>
    </g>
    <g id="Grounbd" transform="matrix(1,0,0,1,0,-420)">
        <g transform="matrix(3.08571,0,0,3.08571,-586.286,1192.43)">
            <path d="M190,32L190,30L260,30L260,32L190,32" style="fill:rgb(147,219,36);fill-rule:nonzero;"/>
        </g>
        <g transform="matrix(3.08571,0,0,3.08571,-586.286,1192.43)">
            <path d="M260,53.5L260,58.5L248.35,47L236.65,58.5L225.05,47L213.35,58.5L201.65,47L190,58.5L190,53.5L201.65,42L213.35,53.5L225.05,42L236.65,53.5L248.35,42L260,53.5" style="fill:rgb(187,128,68);fill-rule:nonzero;"/>
        </g>
        <g transform="matrix(3.08571,0,0,3.08571,-586.286,1192.43)">
            <path d="M260,58.5L260,68.5L248.35,57L236.65,68.5L225.05,57L213.35,68.5L201.65,57L190,68.5L190,58.5L201.65,47L213.35,58.5L225.05,47L236.65,58.5L248.35,47L260,58.5M260,83.5L260,98.6L258.25,96.85L258.3,96.8L248.4,87L236.7,98.5L225.1,87L213.4,98.5L201.7,87L191.75,96.85L191.8,96.9L190,98.7L190,83.5L190.05,83.5L200.2,73.45L201.65,72L213.35,83.5L225.05,72L236.65,83.5L248.35,72L260,83.5" style="fill:rgb(197,143,92);fill-rule:nonzero;"/>
        </g>
        <g transform="matrix(3.08571,0,0,3.08571,-586.286,1192.43)">
            <path d="M260,83.5L248.35,72L236.65,83.5L225.05,72L213.35,83.5L201.65,72L200.2,73.45L190.05,83.5L190,83.5L190,68.5L201.65,57L213.35,68.5L225.05,57L236.65,68.5L248.35,57L260,68.5L260,83.5M260,98.6L260,100L190,100L190,98.7L191.8,96.9L191.75,96.85L201.7,87L213.4,98.5L225.1,87L236.7,98.5L248.4,87L258.3,96.8L258.25,96.85L260,98.6" style="fill:rgb(201,152,105);fill-rule:nonzero;"/>
        </g>
        <g transform="matrix(3.08571,0,0,3.08571,-586.286,1192.43)">
            <path d="M260,32L260,53.5L248.35,42L236.65,53.5L225.05,42L213.35,53.5L201.65,42L190,53.5L190,32L260,32" style="fill:rgb(128,190,31);fill-rule:nonzero;"/>
        </g>
        <g transform="matrix(3.08571,0,0,3.08571,-371.286,1192.43)">
            <path d="M190,32L190,30L260,30L260,32L190,32" style="fill:rgb(147,219,36);fill-rule:nonzero;"/>
        </g>
        <g transform="matrix(3.08571,0,0,3.08571,-371.286,1192.43)">
            <path d="M260,53.5L260,58.5L248.35,47L236.65,58.5L225.05,47L213.35,58.5L201.65,47L190,58.5L190,53.5L201.65,42L213.35,53.5L225.05,42L236.65,53.5L248.35,42L260,53.5" style="fill:rgb(187,128,68);fill-rule:nonzero;"/>
        </g>
        <g transform="matrix(3.08571,0,0,3.08571,-371.286,1192.43)">
            <path d="M260,58.5L260,68.5L248.35,57L236.65,68.5L225.05,57L213.35,68.5L201.65,57L190,68.5L190,58.5L201.65,47L213.35,58.5L225.05,47L236.65,58.5L248.35,47L260,58.5M260,83.5L260,98.6L258.25,96.85L258.3,96.8L248.4,87L236.7,98.5L225.1,87L213.4,98.5L201.7,87L191.75,96.85L191.8,96.9L190,98.7L190,83.5L190.05,83.5L200.2,73.45L201.65,72L213.35,83.5L225.05,72L236.65,83.5L248.35,72L260,83.5" style="fill:rgb(197,143,92);fill-rule:nonzero;"/>
        </g>
        <g transform="matrix(3.08571,0,0,3.08571,-371.286,1192.43)">
            <path d="M260,83.5L248.35,72L236.65,83.5L225.05,72L213.35,83.5L201.65,72L200.2,73.45L190.05,83.5L190,83.5L190,68.5L201.65,57L213.35,68.5L225.05,57L236.65,68.5L248.35,57L260,68.5L260,83.5M260,98.6L260,100L190,100L190,98.7L191.8,96.9L191.75,96.85L201.7,87L213.4,98.5L225.1,87L236.7,98.5L248.4,87L258.3,96.8L258.25,96.85L260,98.6" style="fill:rgb(201,152,105);fill-rule:nonzero;"/>
        </g>
        <g transform="matrix(3.08571,0,0,3.08571,-371.286,1192.43)">
            <path d="M260,32L260,53.5L248.35,42L236.65,53.5L225.05,42L213.35,53.5L201.65,42L190,53.5L190,32L260,32" style="fill:rgb(128,190,31);fill-rule:nonzero;"/>
        </g>
        <g transform="matrix(3.08571,0,0,3.08571,-156.286,1192.43)">
            <path d="M190,32L190,30L260,30L260,32L190,32" style="fill:rgb(147,219,36);fill-rule:nonzero;"/>
        </g>
        <g transform="matrix(3.08571,0,0,3.08571,-156.286,1192.43)">
            <path d="M260,53.5L260,58.5L248.35,47L236.65,58.5L225.05,47L213.35,58.5L201.65,47L190,58.5L190,53.5L201.65,42L213.35,53.5L225.05,42L236.65,53.5L248.35,42L260,53.5" style="fill:rgb(187,128,68);fill-rule:nonzero;"/>
        </g>
        <g transform="matrix(3.08571,0,0,3.08571,-156.286,1192.43)">
            <path d="M260,58.5L260,68.5L248.35,57L236.65,68.5L225.05,57L213.35,68.5L201.65,57L190,68.5L190,58.5L201.65,47L213.35,58.5L225.05,47L236.65,58.5L248.35,47L260,58.5M260,83.5L260,98.6L258.25,96.85L258.3,96.8L248.4,87L236.7,98.5L225.1,87L213.4,98.5L201.7,87L191.75,96.85L191.8,96.9L190,98.7L190,83.5L190.05,83.5L200.2,73.45L201.65,72L213.35,83.5L225.05,72L236.65,83.5L248.35,72L260,83.5" style="fill:rgb(197,143,92);fill-rule:nonzero;"/>
        </g>
        <g transform="matrix(3.08571,0,0,3.08571,-156.286,1192.43)">
            <path d="M260,83.5L248.35,72L236.65,83.5L225.05,72L213.35,83.5L201.65,72L200.2,73.45L190.05,83.5L190,83.5L190,68.5L201.65,57L213.35,68.5L225.05,57L236.65,68.5L248.35,57L260,68.5L260,83.5M260,98.6L260,100L190,100L190,98.7L191.8,96.9L191.75,96.85L201.7,87L213.4,98.5L225.1,87L236.7,98.5L248.4,87L258.3,96.8L258.25,96.85L260,98.6" style="fill:rgb(201,152,105);fill-rule:nonzero;"/>
        </g>
        <g transform="matrix(3.08571,0,0,3.08571,-156.286,1192.43)">
            <path d="M260,32L260,53.5L248.35,42L236.65,53.5L225.05,42L213.35,53.5L201.65,42L190,53.5L190,32L260,32" style="fill:rgb(128,190,31);fill-rule:nonzero;"/>
        </g>
        <g transform="matrix(3.08571,0,0,3.08571,57.7143,1192.43)">
            <path d="M190,32L190,30L260,30L260,32L190,32" style="fill:rgb(147,219,36);fill-rule:nonzero;"/>
        </g>
        <g transform="matrix(3.08571,0,0,3.08571,57.7143,1192.43)">
            <path d="M260,53.5L260,58.5L248.35,47L236.65,58.5L225.05,47L213.35,58.5L201.65,47L190,58.5L190,53.5L201.65,42L213.35,53.5L225.05,42L236.65,53.5L248.35,42L260,53.5" style="fill:rgb(187,128,68);fill-rule:nonzero;"/>
        </g>
        <g transform="matrix(3.08571,0,0,3.08571,57.7143,1192.43)">
            <path d="M260,58.5L260,68.5L248.35,57L236.65,68.5L225.05,57L213.35,68.5L201.65,57L190,68.5L190,58.5L201.65,47L213.35,58.5L225.05,47L236.65,58.5L248.35,47L260,58.5M260,83.5L260,98.6L258.25,96.85L258.3,96.8L248.4,87L236.7,98.5L225.1,87L213.4,98.5L201.7,87L191.75,96.85L191.8,96.9L190,98.7L190,83.5L190.05,83.5L200.2,73.45L201.65,72L213.35,83.5L225.05,72L236.65,83.5L248.35,72L260,83.5" style="fill:rgb(197,143,92);fill-rule:nonzero;"/>
        </g>
        <g transform="matrix(3.08571,0,0,3.08571,57.7143,1192.43)">
            <path d="M260,83.5L248.35,72L236.65,83.5L225.05,72L213.35,83.5L201.65,72L200.2,73.45L190.05,83.5L190,83.5L190,68.5L201.65,57L213.35,68.5L225.05,57L236.65,68.5L248.35,57L260,68.5L260,83.5M260,98.6L260,100L190,100L190,98.7L191.8,96.9L191.75,96.85L201.7,87L213.4,98.5L225.1,87L236.7,98.5L248.4,87L258.3,96.8L258.25,96.85L260,98.6" style="fill:rgb(201,152,105);fill-rule:nonzero;"/>
        </g>
        <g transform="matrix(3.08571,0,0,3.08571,57.7143,1192.43)">
            <path d="M260,32L260,53.5L248.35,42L236.65,53.5L225.05,42L213.35,53.5L201.65,42L190,53.5L190,32L260,32" style="fill:rgb(128,190,31);fill-rule:nonzero;"/>
        </g>
        <g transform="matrix(3.08571,0,0,3.08571,271.714,1192.43)">
            <path d="M190,32L190,30L260,30L260,32L190,32" style="fill:rgb(147,219,36);fill-rule:nonzero;"/>
        </g>
        <g transform="matrix(3.08571,0,0,3.08571,271.714,1192.43)">
            <path d="M260,53.5L260,58.5L248.35,47L236.65,58.5L225.05,47L213.35,58.5L201.65,47L190,58.5L190,53.5L201.65,42L213.35,53.5L225.05,42L236.65,53.5L248.35,42L260,53.5" style="fill:rgb(187,128,68);fill-rule:nonzero;"/>
        </g>
        <g transform="matrix(3.08571,0,0,3.08571,271.714,1192.43)">
            <path d="M260,58.5L260,68.5L248.35,57L236.65,68.5L225.05,57L213.35,68.5L201.65,57L190,68.5L190,58.5L201.65,47L213.35,58.5L225.05,47L236.65,58.5L248.35,47L260,58.5M260,83.5L260,98.6L258.25,96.85L258.3,96.8L248.4,87L236.7,98.5L225.1,87L213.4,98.5L201.7,87L191.75,96.85L191.8,96.9L190,98.7L190,83.5L190.05,83.5L200.2,73.45L201.65,72L213.35,83.5L225.05,72L236.65,83.5L248.35,72L260,83.5" style="fill:rgb(197,143,92);fill-rule:nonzero;"/>
        </g>
        <g transform="matrix(3.08571,0,0,3.08571,271.714,1192.43)">
            <path d="M260,83.5L248.35,72L236.65,83.5L225.05,72L213.35,83.5L201.65,72L200.2,73.45L190.05,83.5L190,83.5L190,68.5L201.65,57L213.35,68.5L225.05,57L236.65,68.5L248.35,57L260,68.5L260,83.5M260,98.6L260,100L190,100L190,98.7L191.8,96.9L191.75,96.85L201.7,87L213.4,98.5L225.1,87L236.7,98.5L248.4,87L258.3,96.8L258.25,96.85L260,98.6" style="fill:rgb(201,152,105);fill-rule:nonzero;"/>
        </g>
        <g transform="matrix(3.08571,0,0,3.08571,271.714,1192.43)">
            <path d="M260,32L260,53.5L248.35,42L236.65,53.5L225.05,42L213.35,53.5L201.65,42L190,53.5L190,32L260,32" style="fill:rgb(128,190,31);fill-rule:nonzero;"/>
        </g>
        <g transform="matrix(3.08571,0,0,3.08571,486.714,1192.43)">
            <path d="M190,32L190,30L260,30L260,32L190,32" style="fill:rgb(147,219,36);fill-rule:nonzero;"/>
        </g>
        <g transform="matrix(3.08571,0,0,3.08571,486.714,1192.43)">
            <path d="M260,53.5L260,58.5L248.35,47L236.65,58.5L225.05,47L213.35,58.5L201.65,47L190,58.5L190,53.5L201.65,42L213.35,53.5L225.05,42L236.65,53.5L248.35,42L260,53.5" style="fill:rgb(187,128,68);fill-rule:nonzero;"/>
        </g>
        <g transform="matrix(3.08571,0,0,3.08571,486.714,1192.43)">
            <path d="M260,58.5L260,68.5L248.35,57L236.65,68.5L225.05,57L213.35,68.5L201.65,57L190,68.5L190,58.5L201.65,47L213.35,58.5L225.05,47L236.65,58.5L248.35,47L260,58.5M260,83.5L260,98.6L258.25,96.85L258.3,96.8L248.4,87L236.7,98.5L225.1,87L213.4,98.5L201.7,87L191.75,96.85L191.8,96.9L190,98.7L190,83.5L190.05,83.5L200.2,73.45L201.65,72L213.35,83.5L225.05,72L236.65,83.5L248.35,72L260,83.5" style="fill:rgb(197,143,92);fill-rule:nonzero;"/>
        </g>
        <g transform="matrix(3.08571,0,0,3.08571,486.714,1192.43)">
            <path d="M260,83.5L248.35,72L236.65,83.5L225.05,72L213.35,83.5L201.65,72L200.2,73.45L190.05,83.5L190,83.5L190,68.5L201.65,57L213.35,68.5L225.05,57L236.65,68.5L248.35,57L260,68.5L260,83.5M260,98.6L260,100L190,100L190,98.7L191.8,96.9L191.75,96.85L201.7,87L213.4,98.5L225.1,87L236.7,98.5L248.4,87L258.3,96.8L258.25,96.85L260,98.6" style="fill:rgb(201,152,105);fill-rule:nonzero;"/>
        </g>
        <g transform="matrix(3.08571,0,0,3.08571,486.714,1192.43)">
            <path d="M260,32L260,53.5L248.35,42L236.65,53.5L225.05,42L213.35,53.5L201.65,42L190,53.5L190,32L260,32" style="fill:rgb(128,190,31);fill-rule:nonzero;"/>
        </g>
        <g transform="matrix(3.08571,0,0,3.08571,-1326.86,663.846)">
            <path d="M430,293.3L430,270L500,270L500,293.3L488.35,281.8L476.65,293.3L465.05,281.8L453.35,293.3L441.65,281.8L440.2,283.25L430.05,293.3L430,293.3M500,308.5L500,323.5L488.35,312L476.65,323.5L465.05,312L453.35,323.5L441.65,312L440.2,313.45L430.05,323.5L430,323.5L430,308.5L441.65,297L453.35,308.5L465.05,297L476.65,308.5L488.35,297L500,308.5M500,338.6L500,340L430,340L430,338.7L431.8,336.9L431.75,336.85L441.7,327L453.4,338.5L465.1,327L476.7,338.5L488.4,327L498.3,336.8L498.25,336.85L500,338.6" style="fill:rgb(201,152,105);fill-rule:nonzero;"/>
        </g>
        <g transform="matrix(3.08571,0,0,3.08571,-1111.86,663.846)">
            <path d="M430,293.3L430,270L500,270L500,293.3L488.35,281.8L476.65,293.3L465.05,281.8L453.35,293.3L441.65,281.8L440.2,283.25L430.05,293.3L430,293.3M500,308.5L500,323.5L488.35,312L476.65,323.5L465.05,312L453.35,323.5L441.65,312L440.2,313.45L430.05,323.5L430,323.5L430,308.5L441.65,297L453.35,308.5L465.05,297L476.65,308.5L488.35,297L500,308.5M500,338.6L500,340L430,340L430,338.7L431.8,336.9L431.75,336.85L441.7,327L453.4,338.5L465.1,327L476.7,338.5L488.4,327L498.3,336.8L498.25,336.85L500,338.6" style="fill:rgb(201,152,105);fill-rule:nonzero;"/>
        </g>
        <g transform="matrix(3.08571,0,0,3.08571,-896.857,663.846)">
            <path d="M430,293.3L430,270L500,270L500,293.3L488.35,281.8L476.65,293.3L465.05,281.8L453.35,293.3L441.65,281.8L440.2,283.25L430.05,293.3L430,293.3M500,308.5L500,323.5L488.35,312L476.65,323.5L465.05,312L453.35,323.5L441.65,312L440.2,313.45L430.05,323.5L430,323.5L430,308.5L441.65,297L453.35,308.5L465.05,297L476.65,308.5L488.35,297L500,308.5M500,338.6L500,340L430,340L430,338.7L431.8,336.9L431.75,336.85L441.7,327L453.4,338.5L465.1,327L476.7,338.5L488.4,327L498.3,336.8L498.25,336.85L500,338.6" style="fill:rgb(201,152,105);fill-rule:nonzero;"/>
        </g>
        <g transform="matrix(3.08571,0,0,3.08571,-682.857,663.846)">
            <path d="M430,293.3L430,270L500,270L500,293.3L488.35,281.8L476.65,293.3L465.05,281.8L453.35,293.3L441.65,281.8L440.2,283.25L430.05,293.3L430,293.3M500,308.5L500,323.5L488.35,312L476.65,323.5L465.05,312L453.35,323.5L441.65,312L440.2,313.45L430.05,323.5L430,323.5L430,308.5L441.65,297L453.35,308.5L465.05,297L476.65,308.5L488.35,297L500,308.5M500,338.6L500,340L430,340L430,338.7L431.8,336.9L431.75,336.85L441.7,327L453.4,338.5L465.1,327L476.7,338.5L488.4,327L498.3,336.8L498.25,336.85L500,338.6" style="fill:rgb(201,152,105);fill-rule:nonzero;"/>
        </g>
        <g transform="matrix(3.08571,0,0,3.08571,-467.857,663.846)">
            <path d="M430,293.3L430,270L500,270L500,293.3L488.35,281.8L476.65,293.3L465.05,281.8L453.35,293.3L441.65,281.8L440.2,283.25L430.05,293.3L430,293.3M500,308.5L500,323.5L488.35,312L476.65,323.5L465.05,312L453.35,323.5L441.65,312L440.2,313.45L430.05,323.5L430,323.5L430,308.5L441.65,297L453.35,308.5L465.05,297L476.65,308.5L488.35,297L500,308.5M500,338.6L500,340L430,340L430,338.7L431.8,336.9L431.75,336.85L441.7,327L453.4,338.5L465.1,327L476.7,338.5L488.4,327L498.3,336.8L498.25,336.85L500,338.6" style="fill:rgb(201,152,105);fill-rule:nonzero;"/>
        </g>
        <g transform="matrix(3.08571,0,0,3.08571,-252.857,663.846)">
            <path d="M430,293.3L430,270L500,270L500,293.3L488.35,281.8L476.65,293.3L465.05,281.8L453.35,293.3L441.65,281.8L440.2,283.25L430.05,293.3L430,293.3M500,308.5L500,323.5L488.35,312L476.65,323.5L465.05,312L453.35,323.5L441.65,312L440.2,313.45L430.05,323.5L430,323.5L430,308.5L441.65,297L453.35,308.5L465.05,297L476.65,308.5L488.35,297L500,308.5M500,338.6L500,340L430,340L430,338.7L431.8,336.9L431.75,336.85L441.7,327L453.4,338.5L465.1,327L476.7,338.5L488.4,327L498.3,336.8L498.25,336.85L500,338.6" style="fill:rgb(201,152,105);fill-rule:nonzero;"/>
        </g>
    </g>
    <g id="Grounbd1" serif:id="Grounbd" transform="matrix(1,0,0,1,1286,-420)">
        <g transform="matrix(3.08571,0,0,3.08571,-586.286,1192.43)">
            <path d="M190,32L190,30L260,30L260,32L190,32" style="fill:rgb(147,219,36);fill-rule:nonzero;"/>
        </g>
        <g transform="matrix(3.08571,0,0,3.08571,-586.286,1192.43)">
            <path d="M260,53.5L260,58.5L248.35,47L236.65,58.5L225.05,47L213.35,58.5L201.65,47L190,58.5L190,53.5L201.65,42L213.35,53.5L225.05,42L236.65,53.5L248.35,42L260,53.5" style="fill:rgb(187,128,68);fill-rule:nonzero;"/>
        </g>
        <g transform="matrix(3.08571,0,0,3.08571,-586.286,1192.43)">
            <path d="M260,58.5L260,68.5L248.35,57L236.65,68.5L225.05,57L213.35,68.5L201.65,57L190,68.5L190,58.5L201.65,47L213.35,58.5L225.05,47L236.65,58.5L248.35,47L260,58.5M260,83.5L260,98.6L258.25,96.85L258.3,96.8L248.4,87L236.7,98.5L225.1,87L213.4,98.5L201.7,87L191.75,96.85L191.8,96.9L190,98.7L190,83.5L190.05,83.5L200.2,73.45L201.65,72L213.35,83.5L225.05,72L236.65,83.5L248.35,72L260,83.5" style="fill:rgb(197,143,92);fill-rule:nonzero;"/>
        </g>
        <g transform="matrix(3.08571,0,0,3.08571,-586.286,1192.43)">
            <path d="M260,83.5L248.35,72L236.65,83.5L225.05,72L213.35,83.5L201.65,72L200.2,73.45L190.05,83.5L190,83.5L190,68.5L201.65,57L213.35,68.5L225.05,57L236.65,68.5L248.35,57L260,68.5L260,83.5M260,98.6L260,100L190,100L190,98.7L191.8,96.9L191.75,96.85L201.7,87L213.4,98.5L225.1,87L236.7,98.5L248.4,87L258.3,96.8L258.25,96.85L260,98.6" style="fill:rgb(201,152,105);fill-rule:nonzero;"/>
        </g>
        <g transform="matrix(3.08571,0,0,3.08571,-586.286,1192.43)">
            <path d="M260,32L260,53.5L248.35,42L236.65,53.5L225.05,42L213.35,53.5L201.65,42L190,53.5L190,32L260,32" style="fill:rgb(128,190,31);fill-rule:nonzero;"/>
        </g>
        <g transform="matrix(3.08571,0,0,3.08571,-371.286,1192.43)">
            <path d="M190,32L190,30L260,30L260,32L190,32" style="fill:rgb(147,219,36);fill-rule:nonzero;"/>
        </g>
        <g transform="matrix(3.08571,0,0,3.08571,-371.286,1192.43)">
            <path d="M260,53.5L260,58.5L248.35,47L236.65,58.5L225.05,47L213.35,58.5L201.65,47L190,58.5L190,53.5L201.65,42L213.35,53.5L225.05,42L236.65,53.5L248.35,42L260,53.5" style="fill:rgb(187,128,68);fill-rule:nonzero;"/>
        </g>
        <g transform="matrix(3.08571,0,0,3.08571,-371.286,1192.43)">
            <path d="M260,58.5L260,68.5L248.35,57L236.65,68.5L225.05,57L213.35,68.5L201.65,57L190,68.5L190,58.5L201.65,47L213.35,58.5L225.05,47L236.65,58.5L248.35,47L260,58.5M260,83.5L260,98.6L258.25,96.85L258.3,96.8L248.4,87L236.7,98.5L225.1,87L213.4,98.5L201.7,87L191.75,96.85L191.8,96.9L190,98.7L190,83.5L190.05,83.5L200.2,73.45L201.65,72L213.35,83.5L225.05,72L236.65,83.5L248.35,72L260,83.5" style="fill:rgb(197,143,92);fill-rule:nonzero;"/>
        </g>
        <g transform="matrix(3.08571,0,0,3.08571,-371.286,1192.43)">
            <path d="M260,83.5L248.35,72L236.65,83.5L225.05,72L213.35,83.5L201.65,72L200.2,73.45L190.05,83.5L190,83.5L190,68.5L201.65,57L213.35,68.5L225.05,57L236.65,68.5L248.35,57L260,68.5L260,83.5M260,98.6L260,100L190,100L190,98.7L191.8,96.9L191.75,96.85L201.7,87L213.4,98.5L225.1,87L236.7,98.5L248.4,87L258.3,96.8L258.25,96.85L260,98.6" style="fill:rgb(201,152,105);fill-rule:nonzero;"/>
        </g>
        <g transform="matrix(3.08571,0,0,3.08571,-371.286,1192.43)">
            <path d="M260,32L260,53.5L248.35,42L236.65,53.5L225.05,42L213.35,53.5L201.65,42L190,53.5L190,32L260,32" style="fill:rgb(128,190,31);fill-rule:nonzero;"/>
        </g>
        <g transform="matrix(3.08571,0,0,3.08571,-156.286,1192.43)">
            <path d="M190,32L190,30L260,30L260,32L190,32" style="fill:rgb(147,219,36);fill-rule:nonzero;"/>
        </g>
        <g transform="matrix(3.08571,0,0,3.08571,-156.286,1192.43)">
            <path d="M260,53.5L260,58.5L248.35,47L236.65,58.5L225.05,47L213.35,58.5L201.65,47L190,58.5L190,53.5L201.65,42L213.35,53.5L225.05,42L236.65,53.5L248.35,42L260,53.5" style="fill:rgb(187,128,68);fill-rule:nonzero;"/>
        </g>
        <g transform="matrix(3.08571,0,0,3.08571,-156.286,1192.43)">
            <path d="M260,58.5L260,68.5L248.35,57L236.65,68.5L225.05,57L213.35,68.5L201.65,57L190,68.5L190,58.5L201.65,47L213.35,58.5L225.05,47L236.65,58.5L248.35,47L260,58.5M260,83.5L260,98.6L258.25,96.85L258.3,96.8L248.4,87L236.7,98.5L225.1,87L213.4,98.5L201.7,87L191.75,96.85L191.8,96.9L190,98.7L190,83.5L190.05,83.5L200.2,73.45L201.65,72L213.35,83.5L225.05,72L236.65,83.5L248.35,72L260,83.5" style="fill:rgb(197,143,92);fill-rule:nonzero;"/>
        </g>
        <g transform="matrix(3.08571,0,0,3.08571,-156.286,1192.43)">
            <path d="M260,83.5L248.35,72L236.65,83.5L225.05,72L213.35,83.5L201.65,72L200.2,73.45L190.05,83.5L190,83.5L190,68.5L201.65,57L213.35,68.5L225.05,57L236.65,68.5L248.35,57L260,68.5L260,83.5M260,98.6L260,100L190,100L190,98.7L191.8,96.9L191.75,96.85L201.7,87L213.4,98.5L225.1,87L236.7,98.5L248.4,87L258.3,96.8L258.25,96.85L260,98.6" style="fill:rgb(201,152,105);fill-rule:nonzero;"/>
        </g>
        <g transform="matrix(3.08571,0,0,3.08571,-156.286,1192.43)">
            <path d="M260,32L260,53.5L248.35,42L236.65,53.5L225.05,42L213.35,53.5L201.65,42L190,53.5L190,32L260,32" style="fill:rgb(128,190,31);fill-rule:nonzero;"/>
        </g>
        <g transform="matrix(3.08571,0,0,3.08571,-1326.86,663.846)">
            <path d="M430,293.3L430,270L500,270L500,293.3L488.35,281.8L476.65,293.3L465.05,281.8L453.35,293.3L441.65,281.8L440.2,283.25L430.05,293.3L430,293.3M500,308.5L500,323.5L488.35,312L476.65,323.5L465.05,312L453.35,323.5L441.65,312L440.2,313.45L430.05,323.5L430,323.5L430,308.5L441.65,297L453.35,308.5L465.05,297L476.65,308.5L488.35,297L500,308.5M500,338.6L500,340L430,340L430,338.7L431.8,336.9L431.75,336.85L441.7,327L453.4,338.5L465.1,327L476.7,338.5L488.4,327L498.3,336.8L498.25,336.85L500,338.6" style="fill:rgb(201,152,105);fill-rule:nonzero;"/>
        </g>
        <g transform="matrix(3.08571,0,0,3.08571,-1111.86,663.846)">
            <path d="M430,293.3L430,270L500,270L500,293.3L488.35,281.8L476.65,293.3L465.05,281.8L453.35,293.3L441.65,281.8L440.2,283.25L430.05,293.3L430,293.3M500,308.5L500,323.5L488.35,312L476.65,323.5L465.05,312L453.35,323.5L441.65,312L440.2,313.45L430.05,323.5L430,323.5L430,308.5L441.65,297L453.35,308.5L465.05,297L476.65,308.5L488.35,297L500,308.5M500,338.6L500,340L430,340L430,338.7L431.8,336.9L431.75,336.85L441.7,327L453.4,338.5L465.1,327L476.7,338.5L488.4,327L498.3,336.8L498.25,336.85L500,338.6" style="fill:rgb(201,152,105);fill-rule:nonzero;"/>
        </g>
        <g transform="matrix(3.08571,0,0,3.08571,-896.857,663.846)">
            <path d="M430,293.3L430,270L500,270L500,293.3L488.35,281.8L476.65,293.3L465.05,281.8L453.35,293.3L441.65,281.8L440.2,283.25L430.05,293.3L430,293.3M500,308.5L500,323.5L488.35,312L476.65,323.5L465.05,312L453.35,323.5L441.65,312L440.2,313.45L430.05,323.5L430,323.5L430,308.5L441.65,297L453.35,308.5L465.05,297L476.65,308.5L488.35,297L500,308.5M500,338.6L500,340L430,340L430,338.7L431.8,336.9L431.75,336.85L441.7,327L453.4,338.5L465.1,327L476.7,338.5L488.4,327L498.3,336.8L498.25,336.85L500,338.6" style="fill:rgb(201,152,105);fill-rule:nonzero;"/>
        </g>
    </g>
    <defs>
        <linearGradient id="_Linear1" x1="0" y1="0" x2="1" y2="0" gradientUnits="userSpaceOnUse" gradientTransform="matrix(986,0,0,598,181,299)"><stop offset="0" style="stop-color:rgb(39,105,177);stop-opacity:1"/><stop offset="1" style="stop-color:rgb(144,215,245);stop-opacity:1"/></linearGradient>
    </defs>
</svg>
