<?xml version="1.0" encoding="UTF-8" standalone="no"?>
<!DOCTYPE svg PUBLIC "-//W3C//DTD SVG 1.1//EN" "http://www.w3.org/Graphics/SVG/1.1/DTD/svg11.dtd">
<svg width="100%" height="100%" viewBox="0 0 200 260" version="1.1" xmlns="http://www.w3.org/2000/svg" xmlns:xlink="http://www.w3.org/1999/xlink" xml:space="preserve" xmlns:serif="http://www.serif.com/" style="fill-rule:evenodd;clip-rule:evenodd;stroke-linejoin:round;stroke-miterlimit:2;">
    <g transform="matrix(2.39248,0.641025,0.641025,-2.39248,137.834,144.178)">
        <g>
            <g id="arm_0_Layer0_0_FILL">
                <path d="M8.25,7.25L13.95,7.25C12.183,6.45 10.85,5.333 9.95,3.9C8.317,1.333 6.333,-1.083 4,-3.35C2.833,-4.417 1.433,-4.967 -0.2,-5C-1.833,-4.967 -3.233,-4.367 -4.4,-3.2C-5.533,-2 -6.067,-0.6 -6,1C-6,2.633 -5.433,4.017 -4.3,5.15C-2.7,6.683 -1.367,8.333 -0.3,10.1C0.833,11.633 1.367,13.333 1.3,15.2L1.75,14.05L3,10.7C4.667,11.667 6.15,12.167 7.45,12.2C8.117,10.8 8.383,9.15 8.25,7.25Z" style="fill:rgb(76,78,170);fill-rule:nonzero;"/>
                <path d="M13.15,10.6C13.05,10.333 12.95,10.067 12.85,9.8L2.55,16.5C2.817,17.533 3.017,18.617 3.15,19.75C3.317,21.35 4.033,22.667 5.3,23.7C6.6,24.7 8.067,25.133 9.7,25C11.3,24.8 12.617,24.05 13.65,22.75C14.683,21.517 15.117,20.067 14.95,18.4C14.717,16.467 14.35,14.617 13.85,12.85C13.65,12.083 13.417,11.333 13.15,10.6Z" style="fill:rgb(61,191,158);fill-rule:nonzero;"/>
                <path d="M12.85,9.8C12.517,8.933 12.15,8.083 11.75,7.25L8.25,7.25C8.383,9.15 8.117,10.8 7.45,12.2C6.15,12.167 4.667,11.667 3,10.7L1.75,14.05C2.05,14.85 2.317,15.667 2.55,16.5L12.85,9.8Z" style="fill:rgb(41,166,134);fill-rule:nonzero;"/>
            </g>
        </g>
    </g>
    <g transform="matrix(-2.39248,0.641025,-0.641025,-2.39248,64.7665,150.37)">
        <g>
            <g id="arm_0_Layer0_0_FILL1" serif:id="arm_0_Layer0_0_FILL">
                <path d="M8.25,7.25L13.95,7.25C12.183,6.45 10.85,5.333 9.95,3.9C8.317,1.333 6.333,-1.083 4,-3.35C2.833,-4.417 1.433,-4.967 -0.2,-5C-1.833,-4.967 -3.233,-4.367 -4.4,-3.2C-5.533,-2 -6.067,-0.6 -6,1C-6,2.633 -5.433,4.017 -4.3,5.15C-2.7,6.683 -1.367,8.333 -0.3,10.1C0.833,11.633 1.367,13.333 1.3,15.2L1.75,14.05L3,10.7C4.667,11.667 6.15,12.167 7.45,12.2C8.117,10.8 8.383,9.15 8.25,7.25Z" style="fill:rgb(76,78,170);fill-rule:nonzero;"/>
                <path d="M13.15,10.6C13.05,10.333 12.95,10.067 12.85,9.8L2.55,16.5C2.817,17.533 3.017,18.617 3.15,19.75C3.317,21.35 4.033,22.667 5.3,23.7C6.6,24.7 8.067,25.133 9.7,25C11.3,24.8 12.617,24.05 13.65,22.75C14.683,21.517 15.117,20.067 14.95,18.4C14.717,16.467 14.35,14.617 13.85,12.85C13.65,12.083 13.417,11.333 13.15,10.6Z" style="fill:rgb(61,191,158);fill-rule:nonzero;"/>
                <path d="M12.85,9.8C12.517,8.933 12.15,8.083 11.75,7.25L8.25,7.25C8.383,9.15 8.117,10.8 7.45,12.2C6.15,12.167 4.667,11.667 3,10.7L1.75,14.05C2.05,14.85 2.317,15.667 2.55,16.5L12.85,9.8Z" style="fill:rgb(41,166,134);fill-rule:nonzero;"/>
            </g>
        </g>
    </g>
    <g transform="matrix(-2.39248,0.641025,0.574998,2.14606,74.0548,196.192)">
        <g>
            <g id="legBend_0_Layer0_0_FILL">
                <path d="M16,20.05L11.5,13.25L-0.3,11.6L-2.05,20.35L15.45,23L16,20.05Z" style="fill:rgb(60,62,65);fill-rule:nonzero;"/>
                <path d="M11.05,6.7L4.95,7.35C4.714,10.083 2.964,11.5 -0.3,11.6L11.5,13.25C11.6,10.883 11.45,8.7 11.05,6.7Z" style="fill:rgb(61,191,158);fill-rule:nonzero;"/>
                <path d="M-2.55,-5.8C-4.117,-5.4 -5.317,-4.5 -6.15,-3.1C-6.983,-1.667 -7.2,-0.15 -6.8,1.45C-6.4,3.017 -5.483,4.233 -4.05,5.1C-2.75,5.867 -1.783,6.833 -1.15,8C-0.617,9.067 -0.333,10.267 -0.3,11.6C2.964,11.5 4.714,10.083 4.95,7.35L11.05,6.7C9.883,1.667 6.867,-2.283 2,-5.15C0.567,-6.017 -0.95,-6.233 -2.55,-5.8Z" style="fill:rgb(238,161,96);fill-rule:nonzero;"/>
            </g>
        </g>
    </g>
    <g transform="matrix(2.03003,1.41909,-1.27294,1.82099,124.335,196.192)">
        <g>
            <g id="legBend_0_Layer0_0_FILL1" serif:id="legBend_0_Layer0_0_FILL">
                <path d="M16,20.05L11.5,13.25L-0.3,11.6L-2.05,20.35L15.45,23L16,20.05Z" style="fill:rgb(60,62,65);fill-rule:nonzero;"/>
                <path d="M11.05,6.7L4.95,7.35C4.714,10.083 2.964,11.5 -0.3,11.6L11.5,13.25C11.6,10.883 11.45,8.7 11.05,6.7Z" style="fill:rgb(61,191,158);fill-rule:nonzero;"/>
                <path d="M-2.55,-5.8C-4.117,-5.4 -5.317,-4.5 -6.15,-3.1C-6.983,-1.667 -7.2,-0.15 -6.8,1.45C-6.4,3.017 -5.483,4.233 -4.05,5.1C-2.75,5.867 -1.783,6.833 -1.15,8C-0.617,9.067 -0.333,10.267 -0.3,11.6C2.964,11.5 4.714,10.083 4.95,7.35L11.05,6.7C9.883,1.667 6.867,-2.283 2,-5.15C0.567,-6.017 -0.95,-6.233 -2.55,-5.8Z" style="fill:rgb(238,161,96);fill-rule:nonzero;"/>
            </g>
        </g>
    </g>
    <g transform="matrix(2.47687,0,0,2.47687,98.2043,184.427)">
        <g>
            <g id="body_0_Layer0_0_FILL">
                <path d="M14.55,2.8L11.8,2.8L7.65,-1.65L3.15,2.8L-15.5,2.8C-15.433,5 -14.933,6.733 -14,8L13.05,8C13.983,6.733 14.483,5 14.55,2.8Z" style="fill:rgb(238,161,96);fill-rule:nonzero;"/>
                <path d="M17.75,-15.8C18.45,-19.4 17.583,-21.133 15.15,-21L-16.15,-21C-18.583,-21.133 -19.45,-19.4 -18.75,-15.8L-15.5,-2.15L-15.5,2.8L3.15,2.8L7.65,-1.65L11.8,2.8L14.55,2.8L14.55,-2.15L17.75,-15.8Z" style="fill:rgb(103,106,198);fill-rule:nonzero;"/>
            </g>
        </g>
        <g>
            <g id="body_0_Layer0_0_MEMBER_0_FILL">
                <path d="M7.55,-28.45C5.45,-30.15 2.933,-31 0,-31C-2.933,-31 -5.45,-30.15 -7.55,-28.45C-9.617,-26.65 -10.65,-24.5 -10.65,-22C-10.65,-21.833 -10.633,-21.667 -10.6,-21.5C-10.5,-19.233 -9.483,-17.3 -7.55,-15.7C-5.45,-13.9 -2.933,-13 0,-13C2.933,-13 5.45,-13.9 7.55,-15.7C9.483,-17.3 10.5,-19.233 10.6,-21.5C10.633,-21.667 10.65,-21.833 10.65,-22C10.65,-24.5 9.617,-26.65 7.55,-28.45Z" style="fill:rgb(41,166,134);fill-rule:nonzero;"/>
            </g>
        </g>
        <g>
            <g id="body_0_Layer0_0_MEMBER_1_FILL">
                <path d="M-13.1,-22L-15.15,-18.4L-2.05,-10.8L0,-14.45L-13.1,-22M13.1,-22L0,-14.45L2.05,-10.8L15.15,-18.4L13.1,-22Z" style="fill:rgb(76,78,170);fill-rule:nonzero;"/>
                <path d="M2.05,-10.8L0,-14.45L-2.05,-10.8L2.05,-10.8Z" style="fill:rgb(103,106,198);fill-rule:nonzero;"/>
            </g>
        </g>
        <g>
            <g id="body_0_Layer0_0_MEMBER_2_FILL">
                <path d="M0.95,-8.35C0.85,-8.417 0.767,-8.417 0.7,-8.35C-0.2,-8.083 -1.483,-7.15 -3.15,-5.55L-3.2,-5.55C-4.767,-3.85 -5.7,-2.583 -6,-1.75C-6.033,-1.65 -6.033,-1.567 -6,-1.5C-5.967,-1.4 -5.9,-1.317 -5.8,-1.25C-5.7,-1.217 -5.617,-1.217 -5.55,-1.25C-4.65,-1.517 -3.35,-2.417 -1.65,-3.95L-1.65,-4C-0.083,-5.7 0.833,-7 1.1,-7.9C1.133,-8 1.133,-8.083 1.1,-8.15C1.067,-8.25 1.017,-8.317 0.95,-8.35Z" style="fill:rgb(61,191,158);fill-rule:nonzero;"/>
            </g>
        </g>
        <g>
            <g id="body_0_Layer0_0_MEMBER_3_FILL">
                <path d="M-13.1,-13.75C-13.133,-13.65 -13.15,-13.567 -13.15,-13.5C-13.117,-12.567 -12.533,-11.083 -11.4,-9.05L-11.4,-9C-10.167,-7.033 -9.2,-5.8 -8.5,-5.3C-8.4,-5.267 -8.317,-5.25 -8.25,-5.25C-8.117,-5.25 -8.017,-5.283 -7.95,-5.35C-7.883,-5.45 -7.85,-5.533 -7.85,-5.6C-7.883,-6.533 -8.433,-8.033 -9.5,-10.1C-10.767,-12.033 -11.8,-13.25 -12.6,-13.75C-12.7,-13.817 -12.783,-13.85 -12.85,-13.85C-12.95,-13.817 -13.033,-13.783 -13.1,-13.75Z" style="fill:rgb(61,191,158);fill-rule:nonzero;"/>
            </g>
        </g>
    </g>
    <g transform="matrix(2.14504,1.2384,1.2384,-2.14504,172.634,99.9658)">
        <g>
            <g id="hand_0_Layer0_0_FILL">
                <path d="M-9.2,7.6L-9.25,6.65C-8.917,2.517 -7.65,-0.683 -5.45,-2.95C-11.25,1.35 -12.517,4.883 -9.25,7.65L-9.2,7.6Z" style="fill:rgb(41,166,134);fill-rule:nonzero;"/>
                <path d="M7,-1.65C6.967,-2.55 6.467,-3 5.5,-3L-5.45,-2.95C-7.65,-0.683 -8.917,2.517 -9.25,6.65L-9.2,7.6L-9.25,7.65C-9.283,8.75 -9.283,9.917 -9.25,11.15L-9.25,11.55C-9.25,12.483 -8.533,13.083 -7.1,13.35C-5,13.817 -2.95,14.033 -0.95,14C4.717,13.967 7.367,9.05 7,-0.75L7,-1.65Z" style="fill:rgb(61,191,158);fill-rule:nonzero;"/>
            </g>
        </g>
    </g>
    <g transform="matrix(-2.14504,1.2384,-1.2384,-2.14504,27.3658,102.443)">
        <g>
            <g id="hand_0_Layer0_0_FILL1" serif:id="hand_0_Layer0_0_FILL">
                <path d="M-9.2,7.6L-9.25,6.65C-8.917,2.517 -7.65,-0.683 -5.45,-2.95C-11.25,1.35 -12.517,4.883 -9.25,7.65L-9.2,7.6Z" style="fill:rgb(41,166,134);fill-rule:nonzero;"/>
                <path d="M7,-1.65C6.967,-2.55 6.467,-3 5.5,-3L-5.45,-2.95C-7.65,-0.683 -8.917,2.517 -9.25,6.65L-9.2,7.6L-9.25,7.65C-9.283,8.75 -9.283,9.917 -9.25,11.15L-9.25,11.55C-9.25,12.483 -8.533,13.083 -7.1,13.35C-5,13.817 -2.95,14.033 -0.95,14C4.717,13.967 7.367,9.05 7,-0.75L7,-1.65Z" style="fill:rgb(61,191,158);fill-rule:nonzero;"/>
            </g>
        </g>
    </g>
    <g transform="matrix(3.51394,0,0,1.78138,100.557,140.339)">
        <g>
            <g id="shadow_0_Layer0_0_FILL">
                <path d="M9.45,-9.55C6.85,-12.15 3.7,-13.45 0,-13.45C-3.7,-13.45 -6.883,-12.15 -9.55,-9.55C-12.15,-6.883 -13.45,-3.7 -13.45,0C-13.45,3.7 -12.15,6.85 -9.55,9.45C-6.883,12.117 -3.7,13.45 0,13.45C3.7,13.45 6.85,12.117 9.45,9.45C12.117,6.85 13.45,3.7 13.45,0C13.45,-3.7 12.117,-6.883 9.45,-9.55Z" style="fill:url(#_Radial1);fill-rule:nonzero;"/>
            </g>
        </g>
    </g>
    <g transform="matrix(2.47169,-0.160058,0.160058,2.47169,100.062,118.79)">
        <g>
            <g id="head_0_Layer0_0_FILL">
                <path d="M-24.65,-11.25C-26.217,-9.683 -27,-7.767 -27,-5.5C-27,-3.3 -26.217,-1.4 -24.65,0.2C-23.05,1.8 -21.15,2.6 -18.95,2.6C-16.75,2.6 -14.85,1.8 -13.25,0.2C-11.683,-1.4 -10.9,-3.3 -10.9,-5.5C-10.9,-7.767 -11.683,-9.683 -13.25,-11.25C-14.85,-12.85 -16.75,-13.65 -18.95,-13.65C-21.15,-13.65 -23.05,-12.85 -24.65,-11.25M-22.35,-2.1C-23.283,-3.033 -23.75,-4.167 -23.75,-5.5C-23.75,-6.8 -23.283,-7.967 -22.35,-9C-21.417,-9.933 -20.283,-10.4 -18.95,-10.4C-17.583,-10.4 -16.433,-9.933 -15.5,-9C-14.567,-7.967 -14.1,-6.8 -14.1,-5.5C-14.1,-4.167 -14.567,-3.033 -15.5,-2.1C-16.433,-1.1 -17.583,-0.6 -18.95,-0.6C-20.283,-0.6 -21.417,-1.1 -22.35,-2.1M12.6,-11.25C11.033,-9.683 10.25,-7.767 10.25,-5.5C10.25,-3.3 11.033,-1.4 12.6,0.2C14.2,1.8 16.1,2.6 18.3,2.6C20.5,2.6 22.4,1.8 24,0.2C25.567,-1.4 26.35,-3.3 26.35,-5.5C26.35,-7.767 25.567,-9.683 24,-11.25C22.4,-12.85 20.5,-13.65 18.3,-13.65C16.1,-13.65 14.2,-12.85 12.6,-11.25M14.9,-9C15.833,-9.933 16.967,-10.4 18.3,-10.4C19.633,-10.4 20.783,-9.933 21.75,-9C22.683,-7.967 23.15,-6.8 23.15,-5.5C23.15,-4.167 22.683,-3.033 21.75,-2.1C20.783,-1.1 19.633,-0.6 18.3,-0.6C16.967,-0.6 15.833,-1.1 14.9,-2.1C13.933,-3.033 13.45,-4.167 13.45,-5.5C13.45,-6.8 13.933,-7.967 14.9,-9Z" style="fill:rgb(61,191,158);fill-rule:nonzero;"/>
                <path d="M-23.75,-5.5C-23.75,-4.167 -23.283,-3.033 -22.35,-2.1C-21.417,-1.1 -20.283,-0.6 -18.95,-0.6C-17.583,-0.6 -16.433,-1.1 -15.5,-2.1C-14.567,-3.033 -14.1,-4.167 -14.1,-5.5C-14.1,-6.8 -14.567,-7.967 -15.5,-9C-16.433,-9.933 -17.583,-10.4 -18.95,-10.4C-20.283,-10.4 -21.417,-9.933 -22.35,-9C-23.283,-7.967 -23.75,-6.8 -23.75,-5.5M18.3,-10.4C16.967,-10.4 15.833,-9.933 14.9,-9C13.933,-7.967 13.45,-6.8 13.45,-5.5C13.45,-4.167 13.933,-3.033 14.9,-2.1C15.833,-1.1 16.967,-0.6 18.3,-0.6C19.633,-0.6 20.783,-1.1 21.75,-2.1C22.683,-3.033 23.15,-4.167 23.15,-5.5C23.15,-6.8 22.683,-7.967 21.75,-9C20.783,-9.933 19.633,-10.4 18.3,-10.4Z" style="fill:rgb(41,166,134);fill-rule:nonzero;"/>
            </g>
        </g>
        <g>
            <g id="head_0_Layer0_1_FILL">
                <path d="M11.75,8C15.317,7.533 17.35,5.583 17.85,2.15L20.5,-24.2L-21.5,-24.2L-18.25,8L11.75,8Z" style="fill:rgb(61,191,158);fill-rule:nonzero;"/>
            </g>
        </g>
        <g>
            <g id="head_0_Layer0_2_FILL">
                <path d="M26.6,-36.25C26.533,-36.383 26.467,-36.517 26.4,-36.65L20.6,-36.1C20.067,-31.2 17.417,-27.633 12.65,-25.4C13.683,-31.333 13.317,-34.883 11.55,-36.05C9.05,-36.95 6.4,-38.95 3.6,-42.05C2.3,-43.683 1.067,-43.733 -0.1,-42.2C-3.4,-37.4 -7.133,-33.45 -11.3,-30.35C-14.333,-31.45 -17.4,-33.117 -20.5,-35.35C-21.733,-32.583 -22.383,-31.067 -22.45,-30.8C-23.183,-28.467 -23.467,-26.133 -23.3,-23.8C-23.233,-22.967 -23.117,-22.1 -22.95,-21.2L-19.05,-15.6L-19.05,-20.75C-18.517,-20.85 -17.983,-20.95 -17.45,-21.05C-17.35,-21.017 -17.25,-20.983 -17.15,-20.95C-13.617,-19.417 -9.35,-18.65 -4.35,-18.65C0.65,-18.65 4.917,-19.417 8.45,-20.95C9.417,-21.383 10.25,-21.833 10.95,-22.3C14.05,-21.933 17.167,-21.417 20.3,-20.75L20.3,-14.95L21.5,-17.4C24.333,-22.933 25.883,-26.067 26.15,-26.8C26.483,-27.867 26.717,-28.933 26.85,-30L26.85,-30.1C27.083,-32.167 27,-34.217 26.6,-36.25Z" style="fill:rgb(60,62,65);fill-rule:nonzero;"/>
                <path d="M26.6,-36.25C26.167,-38.317 25.383,-40.367 24.25,-42.4L13.65,-40.9C10.483,-40.567 6.85,-42.55 2.75,-46.85C1.417,-48.383 0.267,-48.383 -0.7,-46.85C-3.3,-41.95 -6.867,-38.117 -11.4,-35.35C-13.867,-34.25 -16.9,-34.25 -20.5,-35.35C-17.4,-33.117 -14.333,-31.45 -11.3,-30.35C-7.133,-33.45 -3.4,-37.4 -0.1,-42.2C1.067,-43.733 2.3,-43.683 3.6,-42.05C6.4,-38.95 9.05,-36.95 11.55,-36.05C13.317,-34.883 13.683,-31.333 12.65,-25.4C17.417,-27.633 20.067,-31.2 20.6,-36.1L26.4,-36.65C26.467,-36.517 26.533,-36.383 26.6,-36.25Z" style="fill:rgb(69,74,81);fill-rule:nonzero;"/>
            </g>
        </g>
        <g>
            <g id="head_0_Layer0_3_FILL">
                <path d="M2.25,-2.4C2.95,-2.867 3.3,-3.4 3.3,-4C3.3,-4.6 2.95,-5.15 2.25,-5.65C1.583,-6.083 0.767,-6.3 -0.2,-6.3C-1.133,-6.3 -1.933,-6.083 -2.6,-5.65C-3.267,-5.15 -3.6,-4.6 -3.6,-4C-3.6,-3.4 -3.267,-2.867 -2.6,-2.4C-1.933,-1.9 -1.133,-1.65 -0.2,-1.65C0.767,-1.65 1.583,-1.9 2.25,-2.4Z" style="fill:rgb(41,166,134);fill-rule:nonzero;"/>
            </g>
        </g>
        <g>
            <g id="head_0_Layer0_3_MEMBER_0_MEMBER_0_FILL">
                <path d="M16.65,-4.35C16.65,-6.017 16.1,-7.467 15,-8.7C13.833,-9.9 12.4,-10.5 10.7,-10.5C9.067,-10.5 7.7,-9.9 6.6,-8.7C5.433,-7.467 4.85,-6.017 4.85,-4.35C4.85,-2.683 5.433,-1.233 6.6,0C7.7,1.233 9.067,1.85 10.7,1.85C12.4,1.85 13.833,1.233 15,0C16.1,-1.233 16.65,-2.683 16.65,-4.35Z" style="fill:rgb(41,166,134);fill-rule:nonzero;"/>
            </g>
        </g>
        <g>
            <g id="head_0_Layer0_3_MEMBER_0_MEMBER_1_FILL">
                <path d="M7.15,-5.7C7.15,-4.733 7.483,-3.917 8.15,-3.25C8.75,-2.55 9.517,-2.2 10.45,-2.2C11.45,-2.2 12.267,-2.55 12.9,-3.25C13.533,-3.917 13.85,-4.733 13.85,-5.7C13.85,-6.633 13.533,-7.467 12.9,-8.2C12.267,-8.867 11.45,-9.2 10.45,-9.2C9.517,-9.2 8.75,-8.867 8.15,-8.2C7.483,-7.467 7.15,-6.633 7.15,-5.7Z" style="fill:rgb(255,204,0);fill-rule:nonzero;"/>
            </g>
        </g>
        <g>
            <g id="head_0_Layer0_3_MEMBER_1_FILL">
                <path d="M-5.5,-3.85C-4.333,-5.05 -3.75,-6.5 -3.75,-8.2C-3.75,-9.867 -4.333,-11.3 -5.5,-12.5C-6.6,-13.7 -7.967,-14.3 -9.6,-14.3C-11.3,-14.3 -12.733,-13.7 -13.9,-12.5C-15,-11.3 -15.55,-9.867 -15.55,-8.2C-15.55,-6.5 -15,-5.05 -13.9,-3.85C-12.733,-2.617 -11.3,-2 -9.6,-2C-7.967,-2 -6.6,-2.617 -5.5,-3.85Z" style="fill:rgb(41,166,134);fill-rule:nonzero;"/>
            </g>
        </g>
        <g>
            <g id="head_0_Layer0_3_MEMBER_2_FILL">
                <path d="M-16.05,-17.3L-15.15,-13.8L-6.05,-16.3L-6.95,-19.75L-16.05,-17.3Z" style="fill:rgb(69,74,81);fill-rule:nonzero;"/>
            </g>
        </g>
        <g>
            <g id="head_0_Layer0_3_MEMBER_3_FILL">
                <path d="M15.55,-10.7L15.95,-14.25L6.55,-15.4L6.2,-11.8L15.55,-10.7Z" style="fill:rgb(69,74,81);fill-rule:nonzero;"/>
            </g>
        </g>
        <g>
            <g id="head_0_Layer0_3_MEMBER_4_FILL">
                <path d="M-7.05,-7.05C-6.383,-7.717 -6.05,-8.55 -6.05,-9.55C-6.05,-10.483 -6.383,-11.3 -7.05,-12C-7.65,-12.667 -8.417,-13 -9.35,-13C-10.35,-13 -11.167,-12.667 -11.8,-12C-12.433,-11.3 -12.75,-10.483 -12.75,-9.55C-12.75,-8.55 -12.433,-7.717 -11.8,-7.05C-11.167,-6.35 -10.35,-6 -9.35,-6C-8.417,-6 -7.65,-6.35 -7.05,-7.05Z" style="fill:rgb(255,204,0);fill-rule:nonzero;"/>
            </g>
        </g>
        <g>
            <g id="head_0_Layer0_4_FILL">
                <path d="M-20.6,-23.3L-20.65,-23.3C-21.317,-23.2 -21.867,-22.867 -22.3,-22.3C-22.733,-21.767 -22.9,-21.167 -22.8,-20.5L-21.5,-9.95C-21.433,-9.317 -21.117,-8.767 -20.55,-8.3C-20.017,-7.867 -19.417,-7.7 -18.75,-7.8L-18.7,-7.8C-18.033,-7.867 -17.5,-8.183 -17.1,-8.75C-16.7,-9.283 -16.533,-9.883 -16.6,-10.55L-17.9,-21.05C-18,-21.75 -18.317,-22.317 -18.85,-22.75C-19.35,-23.15 -19.933,-23.333 -20.6,-23.3M18.2,-22.75C17.667,-22.317 17.35,-21.75 17.25,-21.05L15.8,-9.15C15.733,-8.483 15.9,-7.867 16.3,-7.3C16.7,-6.767 17.233,-6.467 17.9,-6.4L17.95,-6.4C18.617,-6.3 19.217,-6.45 19.75,-6.85C20.317,-7.317 20.633,-7.883 20.7,-8.55L22.15,-20.5C22.25,-21.167 22.083,-21.767 21.65,-22.3C21.217,-22.867 20.667,-23.2 20,-23.3L19.95,-23.3C19.283,-23.333 18.7,-23.15 18.2,-22.75Z" style="fill:rgb(60,62,65);fill-rule:nonzero;"/>
            </g>
        </g>
        <g>
            <g id="head_0_Layer0_5_FILL">
                <path d="M3.4,1.3C2.467,0.833 1.367,0.6 0.1,0.6C-1.167,0.6 -2.267,0.833 -3.2,1.3C-4.3,1.867 -4.833,2.567 -4.8,3.4C-4.8,3.9 -4.583,4.367 -4.15,4.8C-3.983,4.967 -3.767,5.067 -3.5,5.1C-3.233,5.1 -3,5.05 -2.8,4.95C-2.567,4.817 -2.433,4.65 -2.4,4.45C-2.3,4.25 -2.083,4.083 -1.75,3.95C-1.183,3.65 -0.5,3.5 0.3,3.5C1.1,3.5 1.783,3.65 2.35,3.95C2.617,4.05 2.783,4.183 2.85,4.35C2.983,4.517 3.167,4.65 3.4,4.75C3.667,4.817 3.917,4.817 4.15,4.75C4.417,4.65 4.6,4.517 4.7,4.35C4.9,4.05 5,3.733 5,3.4C5.033,2.567 4.5,1.867 3.4,1.3Z" style="fill:rgb(25,126,100);fill-rule:nonzero;"/>
            </g>
        </g>
    </g>
    <defs>
        <radialGradient id="_Radial1" cx="0" cy="0" r="1" gradientUnits="userSpaceOnUse" gradientTransform="matrix(13.5875,0,0,13.5875,0,0)"><stop offset="0" style="stop-color:black;stop-opacity:0.3"/><stop offset="1" style="stop-color:black;stop-opacity:0"/></radialGradient>
    </defs>
</svg>
